<?xml version="1.0" encoding="UTF-8" standalone="no"?>
<svg width="20px" height="20px" viewBox="0 0 20 20" version="1.1" xmlns="http://www.w3.org/2000/svg" xmlns:xlink="http://www.w3.org/1999/xlink">
    <defs>
        <circle id="path-1" cx="10.1666667" cy="10.1666667" r="10"></circle>
    </defs>
    <g id="Page-1" stroke="none" stroke-width="1" fill="none" fill-rule="evenodd">
        <g id="S48" transform="translate(-940.000000, -642.000000)">
            <g id="main" transform="translate(244.000000, 104.000000)">
                <g id="01">
                    <g id="right" transform="translate(499.000000, 40.000000)">
                        <g id="textbox-copy" transform="translate(0.000000, 468.000000)">
                            <g id="01" transform="translate(48.000000, 29.000000)">
                                <g id="delete_icon" transform="translate(148.833333, 0.833333)">
                                    <mask id="mask-2" fill="white">
                                        <use xlink:href="#path-1"></use>
                                    </mask>
                                    <use id="Mask" fill="#333334" xlink:href="#path-1"></use>
                                    <path d="M11.345178,10.1666667 L14.0892557,7.42258898 C14.4146926,7.09715207 14.4146926,6.56951459 14.0892557,6.24407768 C13.7638187,5.91864077 13.2361813,5.91864077 12.9107443,6.24407768 L9.57741102,9.57741102 L10.7559223,9.57741102 L7.42258898,6.24407768 C7.09715207,5.91864077 6.56951459,5.91864077 6.24407768,6.24407768 C5.91864077,6.56951459 5.91864077,7.09715207 6.24407768,7.42258898 L8.98815536,10.1666667 L6.24407768,12.9107443 C5.91864077,13.2361813 5.91864077,13.7638187 6.24407768,14.0892557 C6.56951459,14.4146926 7.09715207,14.4146926 7.42258898,14.0892557 L10.7559223,10.7559223 L9.57741102,10.7559223 L12.9107443,14.0892557 C13.2361813,14.4146926 13.7638187,14.4146926 14.0892557,14.0892557 C14.4146926,13.7638187 14.4146926,13.2361813 14.0892557,12.9107443 L11.345178,10.1666667 Z" id="Combined-Shape" fill="#FFFFFF" fill-rule="nonzero" mask="url(#mask-2)"></path>
                                </g>
                            </g>
                        </g>
                    </g>
                </g>
            </g>
        </g>
    </g>
</svg>