<?xml version="1.0" encoding="UTF-8" standalone="no"?>
<svg width="155px" height="24px" viewBox="0 0 155 24" version="1.1" xmlns="http://www.w3.org/2000/svg" xmlns:xlink="http://www.w3.org/1999/xlink">
    <!-- Generator: Sketch 46.2 (44496) - http://www.bohemiancoding.com/sketch -->
    <title>logo mobile</title>
    <desc>Created with Sketch.</desc>
    <defs></defs>
    <g id="Page-1" stroke="none" stroke-width="1" fill="none" fill-rule="evenodd">
        <g id="logo-mobile" fill-rule="nonzero" fill="#1A1A1C">
            <path d="M29.6059675,17.7659277 L22.2717397,17.7645413 L22.2677068,17.7640751 L20.8751832,21.4906166 L15.8942333,21.4906166 L23.8476856,2.50938338 L28.2930495,2.50938338 L36.1661639,21.4906166 L31.0780968,21.4906166 L29.6059675,17.7659277 Z M7.52570181,6.42359249 L7.52570181,10.3378016 L14.8632302,10.3378016 L14.8632302,14.1179625 L7.52570181,14.1179625 L7.52570181,21.4906166 L3,21.4906166 L3,2.50938338 L15.4791541,2.50938338 L15.4791541,6.42359249 L7.52570181,6.42359249 Z M29.6059675,17.7659277 L29.6090632,17.7659283 L25.9900296,7.57640751 L22.2719098,17.7640751 L29.6052352,17.7640751 L29.6059675,17.7659277 Z M55.192857,18.8632708 C54.3537681,19.8284231 53.3183121,20.5924905 52.0864581,21.155496 C50.8546041,21.7185015 49.4353154,22 47.8285493,22 C46.3646069,22 45.0122658,21.7587155 43.7714853,21.2761394 C42.5307048,20.7935633 41.4550803,20.109924 40.5445796,19.2252011 C39.6340788,18.3404782 38.9199712,17.2815075 38.4022355,16.0482574 C37.8844998,14.8150072 37.6256358,13.4566651 37.6256358,11.9731903 C37.6256358,10.4539692 37.8889629,9.07775416 38.4156251,7.84450402 C38.9422874,6.61125389 39.6697844,5.56121971 40.5981382,4.69436997 C41.5264919,3.82752024 42.6155059,3.16175389 43.8652128,2.69705094 C45.1149198,2.23234799 46.4627978,2 47.9088872,2 C49.247859,2 50.5644947,2.23681622 51.8588341,2.71045576 C53.1531734,3.18409531 54.2020189,3.87667105 55.0054019,4.78820375 L51.899003,7.89812332 C51.4705321,7.30830804 50.9081724,6.87042145 50.2119071,6.5844504 C49.5156418,6.29847936 48.8015343,6.15549598 48.069563,6.15549598 C47.26618,6.15549598 46.5297566,6.30294759 45.8602707,6.59785523 C45.1907849,6.89276287 44.6150357,7.29937185 44.1330058,7.81769437 C43.650976,8.33601689 43.2760696,8.94816448 43.0082752,9.6541555 C42.7404809,10.3601465 42.6065857,11.1331504 42.6065857,11.9731903 C42.6065857,12.8311035 42.7404809,13.6175121 43.0082752,14.3324397 C43.2760696,15.0473673 43.6465128,15.6595149 44.1196162,16.1689008 C44.5927195,16.6782867 45.1595424,17.0759592 45.8201018,17.3619303 C46.4806612,17.6479013 47.2036951,17.7908847 47.9892251,17.7908847 C48.8997259,17.7908847 49.6941706,17.6121555 50.3725829,17.2546917 C51.0509952,16.8972279 51.5955022,16.4325319 52.0061202,15.8605898 L55.192857,18.8632708 Z M67.6050629,13.4477212 L67.6050629,21.4906166 L63.0258025,21.4906166 L63.0258025,13.4477212 L55.9025085,2.50938338 L61.4458237,2.50938338 L65.4894981,9.53351206 L69.5331725,2.50938338 L74.8890327,2.50938338 L67.6050629,13.4477212 Z M97.2170678,20.7828203 L101.354419,20.7828203 L101.354419,3.2225517 L95.2351029,3.2225517 L91.4198206,14.4829499 L91.3207224,14.4829499 L87.3320181,3.2225517 L81.3117999,3.2225517 L81.3117999,20.7828203 L85.3005042,20.7828203 L85.2014059,8.35669801 L85.2757296,8.35669801 L89.7103759,20.7828203 L92.6833232,20.7828203 L97.2418423,8.35669801 L97.316166,8.35669801 L97.2170678,20.7828203 Z M94.7269296,2.51275911 L102.063408,2.51275911 L102.063408,21.4926129 L96.5023955,21.4926129 L96.5762659,12.2298621 L93.1782286,21.4926129 L89.2108048,21.4926129 L85.9421335,12.3336164 L86.0151764,21.4926129 L80.6028109,21.4926129 L80.6028109,2.51275911 L87.8328427,2.51275911 L91.3564871,12.4602601 L94.7269296,2.51275911 Z M118.015311,20.7828203 L122.722478,20.7828203 L115.438757,3.2225517 L111.32618,3.2225517 L103.968136,20.7828203 L108.576204,20.7828203 L109.864481,17.3352534 L116.652711,17.3352534 L118.015311,20.7828203 Z M110.356225,18.045046 L109.067947,21.4926129 L102.901877,21.4926129 L110.854751,2.51275911 L115.912033,2.51275911 L123.784575,21.4926129 L117.533373,21.4926129 L116.170772,18.045046 L110.356225,18.045046 Z M113.308145,7.91025051 L111.078434,13.9372918 L115.488306,13.9372918 L113.308145,7.91025051 Z M110.059791,14.6470844 L113.315625,5.84637041 L116.499107,14.6470844 L110.059791,14.6470844 Z M136.484746,20.7828203 L141.291011,20.7828203 L141.291011,3.2225517 L137.178434,3.2225517 L137.277532,14.681371 L137.203208,14.681371 L130.167233,3.2225517 L125.336194,3.2225517 L125.336194,20.7828203 L129.448771,20.7828203 L129.349673,9.2991983 L129.423996,9.2991983 L136.484746,20.7828203 Z M129.423996,9.2991983 L129.423996,10.0089909 L129.349673,10.0089909 L129.349673,9.34500015 L129.423996,9.2991983 Z M137.203208,14.681371 L137.203208,13.9715784 L137.277532,13.9715784 L137.277532,14.6356311 L137.203208,14.681371 Z M130.163912,21.4926129 L124.627205,21.4926129 L124.627205,2.51275911 L130.563638,2.51275911 L136.54756,12.2582012 L136.46328,2.51275911 L142,2.51275911 L142,21.4926129 L136.088623,21.4926129 L130.079574,11.7194807 L130.163912,21.4926129 Z" id="MAN"></path>
        </g>
    </g>
</svg>