<?xml version="1.0" encoding="UTF-8" standalone="no"?>
<svg width="200px" height="30px" viewBox="0 0 200 30" version="1.1" xmlns="http://www.w3.org/2000/svg" xmlns:xlink="http://www.w3.org/1999/xlink">
    <!-- Generator: Sketch 45.1 (43504) - http://www.bohemiancoding.com/sketch -->
    <title>logo</title>
    <desc>Created with Sketch.</desc>
    <defs></defs>
    <g id="Page-1" stroke="none" stroke-width="1" fill="none" fill-rule="evenodd">
        <g id="logo" fill-rule="nonzero" fill="#1A1A1C">
            <path d="M37.2847986,22.2931816 L27.8338165,22.2913971 L27.8286198,22.290797 L26.0341955,27.0874309 L19.6156781,27.0874309 L29.8646011,2.655655 L35.5929553,2.655655 L45.7383538,27.0874309 L39.1818038,27.0874309 L37.2847986,22.2931816 Z M8.83187872,7.69384609 L8.83187872,12.7320372 L18.287114,12.7320372 L18.287114,17.5976875 L8.83187872,17.5976875 L8.83187872,27.0874309 L3,27.0874309 L3,2.655655 L19.0808017,2.655655 L19.0808017,7.69384609 L8.83187872,7.69384609 Z M37.2847986,22.2931816 L37.2887878,22.2931824 L32.6252537,9.17769688 L27.8340358,22.290797 L37.2838551,22.290797 L37.2847986,22.2931816 Z M70.2564001,23.7056314 C69.1751391,24.9479313 67.840837,25.931404 66.2534538,26.656079 C64.6660706,27.3807539 62.8371565,27.7430859 60.7666567,27.7430859 C58.8802013,27.7430859 57.1375567,27.4325156 55.5386707,26.8113657 C53.9397847,26.1902157 52.5537209,25.3102665 51.3804377,24.1714916 C50.2071544,23.0327167 49.2869461,21.669658 48.619785,20.0822748 C47.952624,18.4948916 47.6190484,16.7464958 47.6190484,14.8370348 C47.6190484,12.8815627 47.9583753,11.1101617 48.6370391,9.52277846 C49.3157029,7.93539526 50.2531652,6.58383925 51.449454,5.46806989 C52.6457428,4.35230053 54.0490605,3.49535651 55.6594493,2.89721211 C57.269838,2.29906771 59.0067313,2 60.8701811,2 C62.5955977,2 64.2922318,2.30481901 65.9601345,2.91446619 C67.6280371,3.52411336 68.9795931,4.4155652 70.014843,5.58884844 L66.0118967,9.59179478 C65.4597634,8.83261151 64.7350993,8.26898389 63.8378827,7.90089503 C62.9406661,7.53280617 62.0204578,7.3487645 61.0772301,7.3487645 C60.0419802,7.3487645 59.0930153,7.53855748 58.2303071,7.91814911 C57.3675988,8.29774075 56.6256808,8.82110925 56.0045309,9.48827031 C55.3833809,10.1554314 54.9002715,10.9433598 54.5551882,11.8520791 C54.2101049,12.7607985 54.0375658,13.7557738 54.0375658,14.8370348 C54.0375658,15.9413014 54.2101049,16.9535306 54.5551882,17.8737527 C54.9002715,18.7939749 55.3776296,19.5819033 55.9872768,20.2375616 C56.596924,20.8932198 57.3273393,21.4050857 58.1785448,21.7731746 C59.0297503,22.1412634 59.9614613,22.3253051 60.9737056,22.3253051 C62.1469889,22.3253051 63.1707206,22.095253 64.0449317,21.635142 C64.9191427,21.1750309 65.6208016,20.5768955 66.1499293,19.8407177 L70.2564001,23.7056314 Z M86.2509314,16.7349835 L86.2509314,27.0874309 L80.3500364,27.0874309 L80.3500364,16.7349835 L71.1708664,2.655655 L78.3140551,2.655655 L83.5247869,11.6967924 L88.7355188,2.655655 L95.6371504,2.655655 L86.2509314,16.7349835 Z M124.409349,26.1763878 L129.740795,26.1763878 L129.740795,3.57361267 L121.855363,3.57361267 L116.938941,18.0674826 L116.811241,18.0674826 L111.671345,3.57361267 L103.913613,3.57361267 L103.913613,26.1763878 L109.053509,26.1763878 L108.92581,10.1820512 L109.021584,10.1820512 L114.736128,26.1763878 L118.567107,26.1763878 L124.441274,10.1820512 L124.537049,10.1820512 L124.409349,26.1763878 Z M121.200525,2.66000009 L130.654407,2.66000009 L130.654407,27.0900004 L123.488413,27.0900004 L123.583604,15.1674109 L119.204848,27.0900004 L114.092374,27.0900004 L109.880321,15.3009588 L109.974445,27.0900004 L103,27.0900004 L103,2.66000009 L112.316714,2.66000009 L116.857328,15.4639688 L121.200525,2.66000009 Z M151.210239,26.1763878 L157.275955,26.1763878 L147.890057,3.57361267 L142.590536,3.57361267 L133.108864,26.1763878 L139.046881,26.1763878 L140.706972,21.7388373 L149.454374,21.7388373 L151.210239,26.1763878 Z M141.340639,22.6524499 L139.680548,27.0900004 L131.734869,27.0900004 L141.983047,2.66000009 L148.499927,2.66000009 L158.644588,27.0900004 L150.589207,27.0900004 L148.833342,22.6524499 L141.340639,22.6524499 Z M145.144522,9.60740434 L142.271288,17.3651365 L147.953907,17.3651365 L145.144522,9.60740434 Z M140.958652,18.2787491 L145.154162,6.9508722 L149.256438,18.2787491 L140.958652,18.2787491 Z M175.010195,26.1763878 L181.203611,26.1763878 L181.203611,3.57361267 L175.90409,3.57361267 L176.031789,18.3228812 L175.936015,18.3228812 L166.869365,3.57361267 L160.644024,3.57361267 L160.644024,26.1763878 L165.943545,26.1763878 L165.815846,11.3951945 L165.91162,11.3951945 L175.010195,26.1763878 Z M165.91162,11.3951945 L165.91162,12.308807 L165.815846,12.308807 L165.815846,11.4541485 L165.91162,11.3951945 Z M175.936015,18.3228812 L175.936015,17.4092686 L176.031789,17.4092686 L176.031789,18.2640068 L175.936015,18.3228812 Z M166.865085,27.0900004 L159.730412,27.0900004 L159.730412,2.66000009 L167.380177,2.66000009 L175.091138,15.2038878 L174.982533,2.66000009 L182.117223,2.66000009 L182.117223,27.0900004 L174.499745,27.0900004 L166.756406,14.5104714 L166.865085,27.0900004 Z" id="MAN"></path>
        </g>
    </g>
</svg>