<?xml version="1.0" encoding="UTF-8" standalone="no"?>
<svg width="200px" height="30px" viewBox="0 0 200 30" version="1.1" xmlns="http://www.w3.org/2000/svg" xmlns:xlink="http://www.w3.org/1999/xlink">
    <!-- Generator: Sketch 45.1 (43504) - http://www.bohemiancoding.com/sketch -->
    <title>logo</title>
    <desc>Created with Sketch.</desc>
    <defs></defs>
    <g id="Page-1" stroke="none" stroke-width="1" fill="none" fill-rule="evenodd">
        <g id="logo" fill-rule="nonzero" fill="#020705">
            <path d="M8.83187872,7.69384609 L8.83187872,12.7320372 L18.287114,12.7320372 L18.287114,17.5976875 L8.83187872,17.5976875 L8.83187872,27.0874309 L3,27.0874309 L3,2.655655 L19.0808017,2.655655 L19.0808017,7.69384609 L8.83187872,7.69384609 Z M37.2847986,22.2931816 L27.8338165,22.2913971 L27.8286198,22.290797 L26.0341955,27.0874309 L19.6156781,27.0874309 L29.8646011,2.655655 L35.5929553,2.655655 L45.7383538,27.0874309 L39.1818038,27.0874309 L37.2847986,22.2931816 Z M37.2847986,22.2931816 L37.2887878,22.2931824 L32.6252537,9.17769688 L27.8340358,22.290797 L37.2838551,22.290797 L37.2847986,22.2931816 Z M70.2564001,23.7056314 C69.1751391,24.9479313 67.840837,25.931404 66.2534538,26.656079 C64.6660706,27.3807539 62.8371565,27.7430859 60.7666567,27.7430859 C58.8802013,27.7430859 57.1375567,27.4325156 55.5386707,26.8113657 C53.9397847,26.1902157 52.5537209,25.3102665 51.3804377,24.1714916 C50.2071544,23.0327167 49.2869461,21.669658 48.619785,20.0822748 C47.952624,18.4948916 47.6190484,16.7464958 47.6190484,14.8370348 C47.6190484,12.8815627 47.9583753,11.1101617 48.6370391,9.52277846 C49.3157029,7.93539526 50.2531652,6.58383925 51.449454,5.46806989 C52.6457428,4.35230053 54.0490605,3.49535651 55.6594493,2.89721211 C57.269838,2.29906771 59.0067313,2 60.8701811,2 C62.5955977,2 64.2922318,2.30481901 65.9601345,2.91446619 C67.6280371,3.52411336 68.9795931,4.4155652 70.014843,5.58884844 L66.0118967,9.59179478 C65.4597634,8.83261151 64.7350993,8.26898389 63.8378827,7.90089503 C62.9406661,7.53280617 62.0204578,7.3487645 61.0772301,7.3487645 C60.0419802,7.3487645 59.0930153,7.53855748 58.2303071,7.91814911 C57.3675988,8.29774075 56.6256808,8.82110925 56.0045309,9.48827031 C55.3833809,10.1554314 54.9002715,10.9433598 54.5551882,11.8520791 C54.2101049,12.7607985 54.0375658,13.7557738 54.0375658,14.8370348 C54.0375658,15.9413014 54.2101049,16.9535306 54.5551882,17.8737527 C54.9002715,18.7939749 55.3776296,19.5819033 55.9872768,20.2375616 C56.596924,20.8932198 57.3273393,21.4050857 58.1785448,21.7731746 C59.0297503,22.1412634 59.9614613,22.3253051 60.9737056,22.3253051 C62.1469889,22.3253051 63.1707206,22.095253 64.0449317,21.635142 C64.9191427,21.1750309 65.6208016,20.5768955 66.1499293,19.8407177 L70.2564001,23.7056314 Z M86.2509314,16.7349835 L86.2509314,27.0874309 L80.3500364,27.0874309 L80.3500364,16.7349835 L71.1708664,2.655655 L78.3140551,2.655655 L83.5247869,11.6967924 L88.7355188,2.655655 L95.6371504,2.655655 L86.2509314,16.7349835 Z M104.003629,3.66362956 L104.003629,26.2463709 L119.976017,26.2463709 L119.976017,22.0714103 L108.969302,22.0714103 L108.969302,3.66362956 L104.003629,3.66362956 Z M120.899646,21.1477809 L120.899646,27.1700004 L103.08,27.1700004 L103.08,2.74000009 L109.892932,2.74000009 L109.892932,21.1477809 L120.899646,21.1477809 Z M131.740183,17.5169079 L137.591454,17.5169079 L134.74489,9.23024368 L134.681633,9.23024368 L131.740183,17.5169079 Z M138.885335,18.4405373 L130.432238,18.4405373 L134.029394,8.3066142 L135.404217,8.3066142 L138.885335,18.4405373 Z M132.21461,3.66362956 L123.674918,26.2463709 L128.67222,26.2463709 L130.443415,21.2174411 L138.888222,21.2174411 L140.59616,26.2463709 L145.751604,26.2463709 L137.306797,3.66362956 L132.21461,3.66362956 Z M131.097353,22.1410706 L129.326158,27.1700004 L122.338184,27.1700004 L131.57642,2.74000009 L137.947503,2.74000009 L147.083091,27.1700004 L139.934402,27.1700004 L138.226464,22.1410706 L131.097353,22.1410706 Z M153.965974,22.0714103 L158.393963,22.0714103 C159.110879,22.0714103 159.806699,21.9554404 160.481443,21.7234969 C161.156188,21.4915535 161.757123,21.1067441 162.284267,20.5690571 C162.811411,20.0313701 163.23312,19.3302789 163.549407,18.4657626 C163.865693,17.6012462 164.023834,16.5469738 164.023834,15.3029136 C164.023834,14.1642823 163.913135,13.1363667 163.691735,12.2191359 C163.470334,11.3019051 163.10661,10.5164722 162.600552,9.86281346 C162.094494,9.20915475 161.425031,8.70837534 160.592143,8.36046022 C159.759255,8.0125451 158.73134,7.83859015 157.508365,7.83859015 L153.965974,7.83859015 L153.965974,22.0714103 Z M158.393963,22.9950398 L153.042345,22.9950398 L153.042345,6.91496067 L157.508365,6.91496067 C158.84576,6.91496067 159.992587,7.10903901 160.948151,7.50819869 C161.925283,7.91636787 162.724621,8.51429769 163.330888,9.29739226 C163.919665,10.057896 164.338553,10.9624517 164.589579,12.002415 C164.828989,12.9942601 164.947463,14.0943753 164.947463,15.3029136 C164.947463,16.6484081 164.773504,17.8081348 164.416808,18.7831046 C164.057496,19.7652258 163.568041,20.5789434 162.943806,21.2156637 C162.317528,21.8544671 161.594159,22.3176769 160.781696,22.596961 C160.010213,22.8621584 159.212925,22.9950398 158.393963,22.9950398 Z M149.000302,3.66362956 L149.000302,26.2463709 L158.741876,26.2463709 C160.470909,26.2463709 161.973247,25.956446 163.248936,25.3765875 C164.524625,24.7967289 165.58944,24.0007532 166.443413,22.9886365 C167.297387,21.9765198 167.935222,20.7746492 168.356937,19.3829887 C168.778652,17.9913283 168.989507,16.4731759 168.989507,14.8284863 C168.989507,12.9518532 168.73121,11.3177309 168.214609,9.92607044 C167.698008,8.53440995 166.981102,7.37471028 166.063872,6.44693662 C165.146641,5.51916296 164.06074,4.82334315 162.806137,4.35945632 C161.551534,3.8955695 160.196794,3.66362956 158.741876,3.66362956 L149.000302,3.66362956 Z M148.076672,2.74000009 L158.741876,2.74000009 C160.303869,2.74000009 161.767018,2.99050024 163.126453,3.49314843 C164.50693,4.00357695 165.707886,4.77312192 166.720697,5.79757458 C167.733362,6.8218788 168.519693,8.09388531 169.080504,9.60463981 C169.637809,11.1059515 169.913136,12.84782 169.913136,14.8284863 C169.913136,16.5612777 169.689777,18.1694651 169.240873,19.6508481 C168.783562,21.1599748 168.08636,22.4737114 167.149336,23.5842583 C166.205652,24.7026976 165.029813,25.5816669 163.631137,26.2174288 C162.228298,26.8550825 160.596451,27.1700004 158.741876,27.1700004 L148.076672,27.1700004 L148.076672,2.74000009 Z M178.220507,17.4536509 L178.220507,26.2463709 L183.18618,26.2463709 L183.18618,17.5801648 L191.56773,3.66362956 L186.032744,3.66362956 L180.782415,12.5828635 L175.500457,3.66362956 L169.933843,3.66362956 L178.220507,17.4536509 Z M168.301254,2.74000009 L176.026923,2.74000009 L180.780027,10.766198 L185.504668,2.74000009 L193.202216,2.74000009 L184.10981,17.8368257 L184.10981,27.1700004 L177.296878,27.1700004 L177.296878,17.7098168 L168.301254,2.74000009 Z" id="LADY"></path>
        </g>
    </g>
</svg>