<?xml version="1.0" encoding="UTF-8" standalone="no"?>
<svg width="155px" height="24px" viewBox="0 0 155 24" version="1.1" xmlns="http://www.w3.org/2000/svg" xmlns:xlink="http://www.w3.org/1999/xlink">
    <!-- Generator: Sketch 46.2 (44496) - http://www.bohemiancoding.com/sketch -->
    <title>logo mobile</title>
    <desc>Created with Sketch.</desc>
    <defs></defs>
    <g id="Page-1" stroke="none" stroke-width="1" fill="none" fill-rule="evenodd">
        <g id="logo-mobile" fill-rule="nonzero" fill="#020705">
            <path d="M7.53789692,6.42359249 L7.53789692,10.3378016 L14.8951973,10.3378016 L14.8951973,14.1179625 L7.53789692,14.1179625 L7.53789692,21.4906166 L3,21.4906166 L3,2.50938338 L15.5127809,2.50938338 L15.5127809,6.42359249 L7.53789692,6.42359249 Z M29.6776608,17.7659277 L22.32367,17.7645413 L22.3196263,17.7640751 L20.9233503,21.4906166 L15.9289785,21.4906166 L23.9038625,2.50938338 L28.361205,2.50938338 L36.2555346,21.4906166 L31.1537569,21.4906166 L29.6776608,17.7659277 Z M29.6776608,17.7659277 L29.6807649,17.7659283 L26.0519793,7.57640751 L22.3238406,17.7640751 L29.6769266,17.7640751 L29.6776608,17.7659277 Z M55.3334977,18.8632708 C54.4921477,19.8284231 53.4539016,20.5924905 52.2187282,21.155496 C50.9835548,21.7185015 49.5604416,22 47.9493459,22 C46.4814586,22 45.1254734,21.7587155 43.8813495,21.2761394 C42.6372256,20.7935633 41.5587027,20.109924 40.6457484,19.2252011 C39.7327942,18.3404782 39.0167624,17.2815075 38.4976316,16.0482574 C37.9785007,14.8150072 37.7189392,13.4566651 37.7189392,11.9731903 C37.7189392,10.4539692 37.9829759,9.07775416 38.5110573,7.84450402 C39.0391387,6.61125389 39.7685961,5.56121971 40.6994514,4.69436997 C41.6303067,3.82752024 42.7222552,3.16175389 43.9753296,2.69705094 C45.2284041,2.23234799 46.5799141,2 48.0299002,2 C49.37248,2 50.6926636,2.23681622 51.9904908,2.71045576 C53.2883179,3.18409531 54.3399896,3.87667105 55.1455374,4.78820375 L52.0307679,7.89812332 C51.6011424,7.30830804 51.0372674,6.87042145 50.3391259,6.5844504 C49.6409844,6.29847936 48.9249526,6.15549598 48.191009,6.15549598 C47.3854611,6.15549598 46.6470534,6.30294759 45.9757635,6.59785523 C45.3044736,6.89276287 44.7271729,7.29937185 44.2438442,7.81769437 C43.7605155,8.33601689 43.3845988,8.94816448 43.1160829,9.6541555 C42.8475669,10.3601465 42.7133109,11.1331504 42.7133109,11.9731903 C42.7133109,12.8311035 42.8475669,13.6175121 43.1160829,14.3324397 C43.3845988,15.0473673 43.7560403,15.6595149 44.2304185,16.1689008 C44.7047967,16.6782867 45.2731469,17.0759592 45.9354863,17.3619303 C46.5978256,17.6479013 47.3228078,17.7908847 48.1104546,17.7908847 C49.0234089,17.7908847 49.8199942,17.6121555 50.5002347,17.2546917 C51.1804751,16.8972279 51.7264493,16.4325319 52.1381738,15.8605898 L55.3334977,18.8632708 Z M67.7791499,13.4477212 L67.7791499,21.4906166 L63.18755,21.4906166 L63.18755,13.4477212 L56.0450614,2.50938338 L61.6033138,2.50938338 L65.6578844,9.53351206 L69.7124551,2.50938338 L75.0827473,2.50938338 L67.7791499,13.4477212 Z M81.5928654,3.29248651 L81.5928654,20.8371907 L94.0212868,20.8371907 L94.0212868,17.5936319 L85.4567509,17.5936319 L85.4567509,3.29248651 L81.5928654,3.29248651 Z M94.7399807,16.8760571 L94.7399807,21.5547655 L80.8741716,21.5547655 L80.8741716,2.57491172 L86.1754447,2.57491172 L86.1754447,16.8760571 L94.7399807,16.8760571 Z M103.175211,14.0552042 L107.728197,14.0552042 L105.513231,7.61723151 L105.464009,7.61723151 L103.175211,14.0552042 Z M108.734991,14.772779 L102.157474,14.772779 L104.95649,6.89965672 L106.026266,6.89965672 L108.734991,14.772779 Z M103.544372,3.29248651 L96.8994734,20.8371907 L100.78797,20.8371907 L102.166171,16.9301767 L108.737237,16.9301767 L110.066217,20.8371907 L114.077767,20.8371907 L107.5067,3.29248651 L103.544372,3.29248651 Z M102.675012,17.6477515 L101.296811,21.5547655 L95.8593349,21.5547655 L103.047783,2.57491172 L108.005246,2.57491172 L115.113823,21.5547655 L109.55129,21.5547655 L108.22231,17.6477515 L102.675012,17.6477515 Z M120.469526,17.5936319 L123.915029,17.5936319 C124.472875,17.5936319 125.014306,17.503534 125.539338,17.3233354 C126.064369,17.1431367 126.531969,16.8441754 126.94215,16.4264422 C127.352331,16.0087091 127.680471,15.464026 127.926579,14.7923766 C128.172688,14.1207273 128.29574,13.301655 128.29574,12.3351352 C128.29574,11.4505238 128.209603,10.6519283 128.037327,9.93932471 C127.865051,9.22672112 127.582031,8.61651225 127.188257,8.10867981 C126.794483,7.60084736 126.273561,7.21178802 125.625475,6.9414901 C124.977389,6.67119219 124.177549,6.53604526 123.225929,6.53604526 L120.469526,6.53604526 L120.469526,17.5936319 Z M123.915029,18.3112067 L119.750832,18.3112067 L119.750832,5.81847047 L123.225929,5.81847047 C124.266581,5.81847047 125.158949,5.96925141 125.902492,6.27936161 C126.662817,6.59647137 127.284798,7.06100761 127.756545,7.66939976 C128.214684,8.26024094 128.540629,8.96299716 128.735957,9.77095258 C128.922247,10.5415246 129.014434,11.3962125 129.014434,12.3351352 C129.014434,13.3804601 128.879073,14.2814606 128.601521,15.0389221 C128.321933,15.8019396 127.941079,16.434123 127.455349,16.9287958 C126.968031,17.425087 126.405163,17.7849583 125.772971,18.0019362 C125.172664,18.2079702 124.552279,18.3112067 123.915029,18.3112067 Z M116.605641,3.29248651 L116.605641,20.8371907 L124.185747,20.8371907 C125.531141,20.8371907 126.700139,20.6119458 127.692777,20.1614493 C128.685415,19.7109527 129.513968,19.0925532 130.178461,18.3062319 C130.842955,17.5199107 131.339266,16.5861683 131.667411,15.5049767 C131.995556,14.423785 132.159626,13.2443209 132.159626,11.9665489 C132.159626,10.5085784 131.95864,9.23901629 131.556663,8.15782464 C131.154685,7.07663298 130.596847,6.17565345 129.883133,5.45485901 C129.169418,4.73406457 128.324458,4.19347685 127.348227,3.83307963 C126.371996,3.47268241 125.317847,3.29248651 124.185747,3.29248651 L116.605641,3.29248651 Z M115.886947,2.57491172 L124.185747,2.57491172 C125.401164,2.57491172 126.539668,2.7695272 127.597471,3.16003841 C128.671646,3.55659423 129.606134,4.15445959 130.394222,4.95036469 C131.182195,5.74615445 131.794055,6.73438602 132.230432,7.90810272 C132.664082,9.07448321 132.878319,10.4277542 132.878319,11.9665489 C132.878319,13.3127678 132.704519,14.5621808 132.355218,15.7130787 C131.999376,16.8855307 131.456869,17.9061827 130.727753,18.7689751 C129.993455,19.6378991 129.078512,20.3207771 127.990175,20.8147053 C126.898599,21.3101033 125.628828,21.5547655 124.185747,21.5547655 L115.886947,21.5547655 L115.886947,2.57491172 Z M139.342445,14.0060594 L139.342445,20.8371907 L143.20633,20.8371907 L143.20633,14.104349 L149.728175,3.29248651 L145.421296,3.29248651 L141.335914,10.2219075 L137.225921,3.29248651 L132.894432,3.29248651 L139.342445,14.0060594 Z M131.624083,2.57491172 L137.635575,2.57491172 L141.334056,8.81052615 L145.01039,2.57491172 L151,2.57491172 L143.925024,14.3037508 L143.925024,21.5547655 L138.623751,21.5547655 L138.623751,14.2050766 L131.624083,2.57491172 Z" id="LADY"></path>
        </g>
    </g>
</svg>