<?xml version="1.0" encoding="UTF-8" standalone="no"?>
<svg width="26px" height="24px" viewBox="0 0 26 24" version="1.1" xmlns="http://www.w3.org/2000/svg" xmlns:xlink="http://www.w3.org/1999/xlink">
    <!-- Generator: Sketch 46.2 (44496) - http://www.bohemiancoding.com/sketch -->
    <title>icon_like_normal</title>
    <desc>Created with Sketch.</desc>
    <defs></defs>
    <g id="Page-1" stroke="none" stroke-width="1" fill="none" fill-rule="evenodd">
        <g id="base" transform="translate(-2099.000000, -1218.000000)" fill-rule="nonzero" fill="#9B9B9B">
            <path d="M2112,1223.39916 C2111.16126,1221.24115 2108.81153,1219.66128 2106.36667,1219.66128 C2103.18321,1219.66128 2100.73333,1222.06847 2100.73333,1225.26809 C2100.73333,1229.66508 2105.48161,1233.06531 2112,1239.59662 C2118.51839,1233.06531 2123.26667,1229.66508 2123.26667,1225.26809 C2123.26667,1222.06847 2120.81679,1219.66128 2117.63333,1219.66128 C2115.18596,1219.66128 2112.83874,1221.24115 2112,1223.39916 Z M2117.63333,1218 C2121.79841,1218 2125,1221.17418 2125,1225.26809 C2125,1226.5666 2124.67321,1227.81563 2124.03528,1229.0666 C2123.20466,1230.69543 2121.90228,1232.27892 2119.74198,1234.44047 C2119.01158,1235.17128 2114.65238,1239.34236 2113.25257,1240.74494 L2112,1242 L2110.74743,1240.74494 C2109.34762,1239.34236 2104.98842,1235.17128 2104.25802,1234.44047 C2102.09772,1232.27892 2100.79534,1230.69543 2099.96472,1229.0666 C2099.32679,1227.81563 2099,1226.5666 2099,1225.26809 C2099,1221.17418 2102.20159,1218 2106.36667,1218 C2108.49242,1218 2110.5486,1218.90684 2111.99972,1220.35915 C2113.45047,1218.90665 2115.50627,1218 2117.63333,1218 Z" id="icon_like_normal"></path>
        </g>
    </g>
</svg>