<?xml version="1.0" encoding="UTF-8" standalone="no"?>
<svg width="25px" height="26px" viewBox="0 0 25 26" version="1.1" xmlns="http://www.w3.org/2000/svg" xmlns:xlink="http://www.w3.org/1999/xlink">
    <!-- Generator: Sketch 46.2 (44496) - http://www.bohemiancoding.com/sketch -->
    <title>icon-share</title>
    <desc>Created with Sketch.</desc>
    <defs></defs>
    <g id="Page-1" stroke="none" stroke-width="1" fill="none" fill-rule="evenodd">
        <g id="post" transform="translate(-1251.000000, -335.000000)" fill-rule="nonzero" fill="#9B9B9B">
            <g id="main" transform="translate(135.000000, 104.000000)">
                <g id="top" transform="translate(1.000000, 95.000000)">
                    <g id="Item-Header" transform="translate(602.000000, 31.000000)">
                        <path d="M535,108.106776 L526.335997,116.770779 C526.030369,117.076407 525.534848,117.076407 525.229221,116.770779 C524.923593,116.465152 524.923593,115.969631 525.229221,115.664003 L533.893224,107 L527.785714,107 C527.351776,107 527,106.552285 527,106 C527,105.447715 527.351776,105 527.785714,105 L537.214286,105 C537.648224,105 538,105.447715 538,106 C538,106.552285 537.648224,107 537.214286,107 L537,107 L537,115.214286 C537,115.648224 536.552285,116 536,116 C535.447715,116 535,115.648224 535,115.214286 L535,108.106776 Z M514.530612,129.469388 L536.469388,129.469388 L536.469388,121.323858 C536.469388,120.901191 536.812027,120.558552 537.234694,120.558552 C537.657361,120.558552 538,120.901191 538,121.323858 L538,130.234694 C538,130.657361 537.657361,131 537.234694,131 L513.765306,131 C513.342639,131 513,130.657361 513,130.234694 L513,106.765306 C513,106.342639 513.342639,106 513.765306,106 L521.295594,106 C521.718261,106 522.0609,106.342639 522.0609,106.765306 C522.0609,107.187973 521.718261,107.530612 521.295594,107.530612 L514.530612,107.530612 L514.530612,129.469388 Z" id="icon-share"></path>
                    </g>
                </g>
            </g>
        </g>
    </g>
</svg>
