<?xml version="1.0" encoding="UTF-8" standalone="no"?>
<svg width="48px" height="48px" viewBox="0 0 48 48" version="1.1" xmlns="http://www.w3.org/2000/svg" xmlns:xlink="http://www.w3.org/1999/xlink">
    <!-- Generator: Sketch 44.1 (41455) - http://www.bohemiancoding.com/sketch -->
    <title>more</title>
    <desc>Created with Sketch.</desc>
    <defs>
        <circle id="path-1" cx="20" cy="20" r="20"></circle>
    </defs>
    <g id="Page-1" stroke="none" stroke-width="1" fill="none" fill-rule="evenodd">
        <g id="S25" transform="translate(-1088.000000, -270.000000)">
            <g id="main" transform="translate(241.000000, 102.000000)">
                <g id="top" transform="translate(3.000000, 0.000000)">
                    <g id="Item-Header" transform="translate(602.000000, 31.000000)">
                        <g id="like" transform="translate(2.000000, 138.000000)">
                            <g id="more" transform="translate(244.000000, 3.000000)">
                                <g id="Oval">
                                    <use fill="#D8D8D8" fill-rule="evenodd" xlink:href="#path-1"></use>
                                    <circle stroke="#FFFFFF" stroke-width="4" cx="20" cy="20" r="22"></circle>
                                </g>
                                <path d="M10.5,22 C11.8807119,22 13,20.8807119 13,19.5 C13,18.1192881 11.8807119,17 10.5,17 C9.11928813,17 8,18.1192881 8,19.5 C8,20.8807119 9.11928813,22 10.5,22 Z" id="Oval-2" fill="#FFFFFF"></path>
                                <path d="M19.5,22 C20.8807119,22 22,20.8807119 22,19.5 C22,18.1192881 20.8807119,17 19.5,17 C18.1192881,17 17,18.1192881 17,19.5 C17,20.8807119 18.1192881,22 19.5,22 Z" id="Oval-2" fill="#FFFFFF"></path>
                                <path d="M28.5,22 C29.8807119,22 31,20.8807119 31,19.5 C31,18.1192881 29.8807119,17 28.5,17 C27.1192881,17 26,18.1192881 26,19.5 C26,20.8807119 27.1192881,22 28.5,22 Z" id="Oval-2" fill="#FFFFFF"></path>
                            </g>
                        </g>
                    </g>
                </g>
            </g>
        </g>
    </g>
</svg>